PathFileType	3	(X/Y/Z)	C:\Users\koon_\Desktop\
DataRate	CameraRate	NumFrames	NumMarkers	Units	OrigDataRate	OrigDataStartFrame	OrigNumFrames
100.0	100.0	14	27	mm	100.0	1877	3002	
Frame#	Time	GM:LFHD			GM:RFHD			GM:LBHD			GM:RBHD			GM:C7			GM:T10			GM:CLAV			GM:STRN			GM:RBAK			GM:LSHO			GM:LUPA			GM:LELB			GM:LFRA			GM:LWRA			GM:LWRB			GM:LFIN			GM:RSHO			GM:RUPA			GM:RELB			GM:RFRA			GM:RWRA			GM:RWRB			GM:RFIN			GM:LASI			GM:RASI			GM:LPSI			GM:RPSI			
		X1	Y1	Z1	X2	Y2	Z2	X3	Y3	Z3	X4	Y4	Z4	X5	Y5	Z5	X6	Y6	Z6	X7	Y7	Z7	X8	Y8	Z8	X9	Y9	Z9	X10	Y10	Z10	X11	Y11	Z11	X12	Y12	Z12	X13	Y13	Z13	X14	Y14	Z14	X15	Y15	Z15	X16	Y16	Z16	X17	Y17	Z17	X18	Y18	Z18	X19	Y19	Z19	X20	Y20	Z20	X21	Y21	Z21	X22	Y22	Z22	X23	Y23	Z23	X24	Y24	Z24	X25	Y25	Z25	X26	Y26	Z26	X27	Y27	Z27	
1877	18.76	92.116615	1599.8878	-43.951992	-60.614838	1580.5355	-39.474133	90.145233	1585.3765	-176.30824	-71.882851	1567.3447	-154.58585	21.702732	1421.3158	-223.55737	40.72945	1227.4968	-283.55472	43.306133	1353.0249	-68.869186	56.109329	1205.6259	-29.678133	-63.573204	1307.8568	-273.29025	199.96677	1405.8639	-166.19855	280.47873	1312.5453	-168.49857	344.71429	1117.6031	-223.64069	353.26355	1008.6234	-121.83126	371.00186	943.90576	-92.019958	402.57855	921.85327	-147.17989	400.76465	858.9101	-69.957184	-150.45753	1372.0048	-124.89867	-225.92491	1153.0812	-147.51643	-264.1185	1075.1091	-201.88457	-252.33963	1023.1645	-121.68591	-259.16617	898.43353	-78.961487	-279.33441	873.43665	-132.5797	-278.75107	812.18951	-59.020592	192.76817	900.93018	-64.012314	-99.947433	911.31995	-66.988716	119.57941	944.51404	-274.30774	-17.625803	939.3255	-278.13171
1878	18.77	86.46685	1599.8976	-43.400524	-66.174141	1579.4066	-38.518681	84.457718	1585.4408	-175.80998	-77.074051	1566.4028	-153.93573	17.55092	1421.0364	-223.04456	38.616135	1227.6116	-283.5238	39.755913	1352.7422	-68.438461	53.844292	1205.4423	-29.52277	-66.580139	1306.8175	-272.99933	196.03787	1407.2883	-165.50037	277.1933	1314.5984	-167.79285	343.23535	1120.3341	-223.33685	351.9339	1010.8934	-121.77979	370.04245	946.34058	-92.418571	401.63202	924.50153	-147.31717	399.89481	861.42126	-70.249428	-154.15436	1369.9369	-124.614	-228.15602	1150.6992	-147.50272	-265.87842	1072.4579	-201.90726	-253.75363	1020.5206	-121.9947	-260.07004	895.93903	-78.954262	-280.00092	870.79694	-132.5318	-279.00766	809.5329	-58.974144	192.70349	901.81567	-63.833473	-99.903748	911.00897	-66.850861	119.7066	944.42786	-274.22049	-17.517197	939.0658	-278.09366
1879	18.78	80.644188	1599.8883	-42.736038	-71.680473	1578.181	-37.78701	78.53537	1585.4873	-175.12602	-82.772141	1565.1169	-153.1394	13.254138	1420.7416	-222.65015	36.447922	1227.6971	-283.32773	35.972794	1352.4775	-67.997856	51.52951	1205.1372	-29.392649	-69.671593	1305.728	-272.62051	191.82405	1408.6948	-164.77603	273.73441	1316.6804	-167.07117	341.4118	1123.0643	-223.11157	350.05951	1013.3171	-122.03159	368.41452	948.7572	-92.463547	400.79697	927.34363	-147.45094	399.02979	863.94128	-70.631859	-157.92322	1367.7915	-124.33641	-230.51456	1148.2062	-147.49313	-267.66196	1069.7537	-202.02313	-255.47037	1017.9363	-122.00726	-261.03998	893.35638	-78.90287	-280.69449	868.10809	-132.57977	-279.40689	806.81628	-58.907837	192.65886	902.67273	-63.788658	-99.792427	910.76801	-66.638649	119.79109	944.34998	-274.19064	-17.383446	938.86316	-278.06009
1880	18.79	74.738678	1599.822	-42.111412	-77.584625	1576.825	-36.791401	72.418633	1585.5338	-174.48004	-89.049187	1563.6293	-152.09082	8.8680744	1420.446	-222.06441	34.244358	1227.7799	-283.23193	32.178165	1352.0787	-67.572281	49.237316	1204.8356	-29.28042	-72.803581	1304.6105	-272.28848	187.56242	1410.1993	-164.02615	270.23544	1318.834	-166.41005	339.22156	1125.6879	-222.98875	348.29691	1015.6824	-122.17332	366.96133	951.14929	-92.703583	399.79636	930.20776	-147.63803	398.04611	866.50555	-71.073692	-161.70805	1365.4714	-123.9565	-232.81517	1145.5879	-147.53137	-269.52676	1066.979	-202.21262	-257.26724	1015.4587	-121.84292	-262.05084	890.67352	-78.923439	-281.2955	865.25836	-132.58163	-279.90231	804.03607	-58.906815	192.63182	903.51245	-63.696533	-99.739067	910.44373	-66.407921	119.92937	944.27856	-274.17661	-17.241323	938.64966	-277.98117
1881	18.8	68.632942	1599.725	-41.343128	-83.347664	1575.4651	-35.801254	66.165405	1585.5602	-173.80623	-94.709442	1562.3131	-151.20161	4.4152107	1420.0449	-221.52596	31.989872	1227.8788	-283.09125	28.375156	1351.6617	-67.076981	46.999294	1204.5338	-29.088402	-75.977432	1303.3678	-271.95255	183.24341	1411.6945	-163.269	266.72095	1321.0114	-165.74269	337.25549	1128.4783	-222.81023	346.52292	1018.1427	-122.39043	365.46814	953.68561	-93.096085	398.76703	933.19611	-147.9276	396.98306	869.11353	-71.615616	-165.56761	1363.0193	-123.64058	-235.14517	1142.8806	-147.60173	-271.06647	1064.135	-202.41861	-258.97562	1012.6468	-121.92798	-263.01596	887.88342	-78.935829	-282.02536	862.27002	-132.61566	-280.2644	801.12329	-58.905125	192.73822	904.27972	-63.731133	-99.576431	910.19781	-66.205498	120.12807	944.21387	-274.1915	-17.048218	938.50708	-277.92261
1882	18.81	62.335159	1599.5386	-40.563911	-89.373619	1573.8079	-34.654709	59.708378	1585.4576	-172.98253	-101.29819	1560.5869	-149.99727	-0.12610926	1419.6688	-220.88716	29.700642	1227.9193	-282.88046	24.458027	1351.1517	-66.545822	44.634144	1204.1198	-29.022987	-79.18959	1302.1514	-271.55237	178.83884	1413.1698	-162.37834	263.1149	1323.2294	-165.01201	335.26593	1131.4716	-222.6076	344.7438	1020.7065	-122.60761	363.90594	956.22253	-93.500404	397.7359	936.15765	-148.26816	395.8717	871.75787	-72.261665	-169.47186	1360.4912	-123.34766	-237.53671	1140.073	-147.55931	-272.8952	1061.075	-202.58559	-260.68735	1009.7207	-122.08112	-263.95987	884.98547	-78.988991	-282.77557	859.24542	-132.63997	-280.73767	798.06659	-58.961597	192.93129	905.01636	-63.757317	-99.444008	909.94177	-66.046303	120.31404	944.16437	-274.19098	-16.86965	938.34485	-277.94601
1883	18.82	55.938248	1599.3049	-39.711922	-95.433937	1572.0471	-33.515255	53.167881	1585.3342	-172.1577	-107.12609	1559.0897	-148.96899	-4.6271753	1419.1995	-220.26442	27.441544	1227.9948	-282.73322	20.45118	1350.5658	-66.133232	42.046738	1203.5833	-29.28496	-82.442436	1300.9208	-271.26996	174.27463	1414.5839	-161.59929	259.38812	1325.473	-164.45662	333.44962	1134.4377	-222.51871	342.83438	1023.2653	-122.87437	362.28467	958.77747	-93.906281	396.61295	939.25085	-148.64684	394.72198	874.47888	-72.861984	-173.45015	1357.8867	-123.10574	-239.95667	1137.174	-147.62698	-274.88791	1057.8696	-202.75439	-262.33542	1006.7734	-122.17625	-264.94656	881.99133	-79.002632	-283.48944	856.14966	-132.75444	-281.20627	794.97357	-59.019035	193.13365	905.55524	-63.940922	-99.182838	909.71027	-65.834084	120.54547	944.14874	-274.24686	-16.703318	938.21338	-277.9476
1884	18.83	49.378235	1599.02	-38.843494	-101.67316	1570.1409	-32.342659	46.450771	1585.1515	-171.27792	-113.86922	1556.8916	-147.7701	-9.3362932	1418.64	-219.55748	25.130968	1228.097	-282.75507	16.42667	1349.9381	-65.537704	39.840717	1203.2407	-28.928516	-85.746109	1299.5735	-270.90982	169.60469	1416.0454	-160.65169	255.63315	1327.7681	-163.83568	331.25098	1137.4326	-222.4256	340.89938	1025.8865	-123.1653	360.76672	961.39679	-94.360878	395.43851	942.27112	-149.05202	393.49985	877.21594	-73.475189	-177.41212	1355.1106	-122.72808	-242.32268	1134.1809	-147.74889	-276.4169	1054.6721	-202.90561	-263.86887	1003.4694	-122.45237	-265.94843	878.87695	-79.05249	-284.2529	852.94366	-132.90981	-281.68805	791.75293	-59.104183	193.4928	906.00934	-64.095757	-98.915253	909.54382	-65.578423	120.89711	944.30212	-273.98492	-16.523239	938.0318	-277.97864
1885	18.84	42.669357	1598.5929	-37.822453	-108.05859	1568.0189	-31.114511	39.600803	1584.8759	-170.33281	-119.99353	1554.994	-146.56303	-14.051009	1418.0229	-218.84279	22.765162	1228.1146	-282.55334	12.364053	1349.1786	-65.098404	37.459404	1202.7255	-28.850924	-89.019051	1298.239	-270.55405	164.81227	1417.496	-159.73601	251.75774	1330.019	-163.14883	329.08752	1140.5724	-222.35028	339.38626	1028.4606	-123.34557	358.97028	964.1037	-94.728508	394.12842	945.42688	-149.52571	392.2854	879.99957	-74.16642	-181.438	1352.3251	-122.40207	-244.60719	1131.1005	-147.79012	-278.40317	1051.3824	-203.07135	-265.78918	1000.4689	-122.45724	-266.98401	875.67072	-79.202827	-284.91785	849.61322	-133.01112	-282.34802	788.48828	-59.389835	193.91623	906.44629	-64.352989	-98.596771	909.36859	-65.324097	121.05383	944.09863	-274.01617	-16.318224	937.88623	-278.02972
1886	18.85	35.744705	1598.0801	-36.809772	-114.57035	1565.8391	-29.952742	32.66291	1584.4719	-169.3622	-126.9898	1552.5569	-145.2252	-18.894796	1417.3177	-218.1069	20.345322	1228.066	-282.34271	8.2087584	1348.3302	-64.421707	35.041485	1202.0619	-28.758272	-92.391068	1296.8286	-270.21039	159.89874	1418.8802	-158.79942	247.79414	1332.2881	-162.44588	326.79752	1143.5917	-222.29144	337.15427	1031.2246	-123.87837	357.48618	966.82562	-95.383812	392.89984	948.55731	-149.93214	391.00278	882.85504	-75.013924	-185.5426	1349.3853	-121.95196	-247.01318	1127.9561	-147.88828	-280.16235	1048.0167	-203.35938	-267.40314	997.1684	-122.61222	-268.02625	872.40533	-79.406357	-285.76099	846.27136	-133.22243	-282.88998	785.14935	-59.672173	194.31015	906.82947	-64.630386	-98.176338	909.20117	-65.059265	121.39057	944.3407	-274.4353	-16.134525	937.71497	-278.11566
1887	18.86	28.721045	1597.4247	-35.708107	-121.35011	1563.3433	-28.500551	25.526686	1583.9021	-168.19221	-133.68811	1550.0692	-143.94411	-23.879152	1416.4882	-217.28285	17.814404	1227.9543	-282.17993	4.0493798	1347.3571	-63.827484	32.669212	1201.3903	-28.630541	-95.777336	1295.3787	-269.82053	154.97339	1420.1718	-157.73895	243.69748	1334.5483	-161.74072	324.43381	1146.5846	-222.36082	335.12485	1034.0078	-124.38188	355.58578	969.57904	-95.94928	391.62918	951.91254	-150.50356	389.71619	885.68262	-75.737694	-189.65387	1346.3228	-121.50512	-249.34427	1124.6289	-147.93979	-281.55081	1044.5442	-203.56558	-269.16153	993.83258	-122.8528	-269.11237	869.04279	-79.656677	-286.4295	842.8241	-133.61549	-283.5242	781.68347	-59.977589	194.77467	907.29346	-64.958298	-97.757164	909.01288	-64.879227	121.75731	944.39771	-274.52527	-15.877933	937.57202	-278.1593
1888	18.87	21.555441	1596.6388	-34.52914	-127.94363	1560.7434	-27.235601	18.308409	1583.2759	-167.13058	-140.03426	1547.6919	-142.64236	-28.927498	1415.62	-216.46581	15.332431	1227.8604	-282.13489	-0.27031881	1346.3354	-63.205994	30.24766	1200.6182	-28.567686	-99.240364	1293.7823	-269.35947	149.88678	1421.451	-156.69943	239.54932	1336.7649	-161.04094	322.07739	1149.7823	-222.30774	333.12079	1036.7588	-124.8141	353.77716	972.29236	-96.53624	390.33691	955.15259	-151.03404	388.41861	888.62732	-76.495842	-193.77826	1343.1283	-121.10103	-251.68756	1121.2748	-147.99391	-283.56366	1041.0106	-203.93329	-270.79611	990.37646	-123.13496	-270.17142	865.53491	-80.075409	-287.08646	839.22412	-133.99197	-284.15164	778.1012	-60.429813	195.15486	907.83264	-65.275787	-97.355408	908.77582	-64.757362	122.03015	944.5025	-274.59686	-15.531511	937.37592	-278.21686
1889	18.88	14.236745	1595.8359	-33.349621	-134.73561	1557.9786	-25.773962	11.044292	1582.5374	-165.76979	-146.79686	1544.8757	-141.29279	-33.963112	1414.6688	-215.70753	12.846058	1227.7516	-281.98108	-4.5624857	1345.137	-62.648945	27.802242	1199.7573	-28.50742	-102.78921	1292.1357	-268.86557	144.71764	1422.6757	-155.63896	235.29524	1338.9192	-160.2305	319.66486	1152.8375	-222.43976	331.02481	1039.5144	-125.33437	352.21161	975.17023	-97.125633	388.90723	958.57562	-151.73586	387.15027	891.53522	-77.342384	-197.90265	1339.8512	-120.54618	-254.00162	1117.7733	-148.10258	-285.29352	1037.4869	-204.23778	-272.47809	986.78241	-123.44651	-271.26352	862.0177	-80.395897	-287.6666	835.59338	-134.50137	-284.78094	774.4444	-60.844769	195.57846	908.50745	-65.804932	-96.966377	908.54352	-64.668991	122.31552	944.57178	-274.67972	-15.212102	937.13495	-278.31424
1890	18.89	6.793663	1594.8782	-32.001488	-141.60785	1555.0416	-24.439899	3.5685945	1581.6971	-164.57397	-153.73654	1541.9218	-139.87392	-39.116337	1413.6453	-214.8566	10.257728	1227.5623	-281.76038	-8.8163834	1343.9266	-61.946011	25.389875	1198.8751	-28.392868	-106.38182	1290.4489	-268.35532	139.49498	1423.7904	-154.57973	231.03682	1341.0426	-159.51753	317.16888	1155.9305	-222.48454	328.99542	1042.2809	-125.78711	350.55637	977.94318	-97.832207	387.73508	961.75452	-152.16733	385.87653	894.45819	-78.260452	-202.04958	1336.4304	-119.95656	-256.29272	1114.1714	-148.18379	-286.65897	1033.6644	-204.63649	-274.14935	982.96814	-123.97823	-272.29559	858.38861	-80.839722	-288.37903	831.86615	-134.89761	-285.36728	770.65247	-61.299538	195.90833	909.35242	-66.401321	-96.599167	908.27246	-64.583664	122.63886	944.6441	-274.87225	-14.863887	936.89722	-278.54428
